Coordinates
version=1
nRows=10
nColumns=40
inDegrees=yes

Units are S.I. units (second, meters, Newtons, ...)
If the header above contains a line with 'inDegrees', this indicates whether rotational values are in degrees (yes) or radians (no).

endheader
time	pelvis_tilt	pelvis_list	pelvis_rotation	pelvis_tx	pelvis_ty	pelvis_tz	hip_flexion_r	hip_adduction_r	hip_rotation_r	knee_angle_r	knee_angle_r_beta	ankle_angle_r	subtalar_angle_r	mtp_angle_r	hip_flexion_l	hip_adduction_l	hip_rotation_l	knee_angle_l	knee_angle_l_beta	ankle_angle_l	subtalar_angle_l	mtp_angle_l	lumbar_extension	lumbar_bending	lumbar_rotation	arm_flex_r	arm_add_r	arm_rot_r	elbow_flex_r	pro_sup_r	wrist_flex_r	wrist_dev_r	arm_flex_l	arm_add_l	arm_rot_l	elbow_flex_l	pro_sup_l	wrist_flex_l	wrist_dev_l
     12.11500000	     10.22950909	     -6.43845243	     -4.57033176	     -0.27353835	      0.92824517	     -1.03177488	     62.79427465	      2.54830319	     -4.61263445	     31.82005717	      0.55536477	     -2.77667324	      0.00000000	      0.00000000	     23.42162752	     -4.47701038	     -6.94773324	     70.04598213	      1.22253302	     33.05281766	      0.00000000	      0.00000000	    -19.50497506	      3.08141711	      3.04741017	     89.87528507	     -4.72939656	     33.33556387	     30.57070404	     73.44407467	      0.00000000	      0.00000000	     89.92325000	    -14.14541271	     37.68526252	     34.18075495	     85.08031660	      0.00000000	      0.00000000
     12.12000000	     10.17783933	     -6.45627053	     -4.53285178	     -0.27370908	      0.92917773	     -1.03184494	     62.78875880	      2.52161387	     -4.59446066	     31.83506753	      0.55562675	     -2.77878908	      0.00000000	      0.00000000	     23.44528066	     -4.52939968	     -6.96086623	     69.96158303	      1.22105997	     33.02649677	      0.00000000	      0.00000000	    -19.46798184	      3.09697530	      3.01258549	     89.87500713	     -4.74565669	     33.31584127	     30.59938175	     73.45439558	      0.00000000	      0.00000000	     89.92333393	    -14.13886230	     37.66673097	     34.20209538	     85.07570726	      0.00000000	      0.00000000
     12.12500000	     10.08503513	     -6.48700562	     -4.47098911	     -0.27390082	      0.92996642	     -1.03191687	     62.86237673	      2.48321501	     -4.56839042	     31.85704625	      0.55601035	     -2.80679123	      0.00000000	      0.00000000	     23.43967526	     -4.60304049	     -6.99192054	     69.69153684	      1.21634678	     32.89677807	      0.00000000	      0.00000000	    -19.37568246	      3.14016525	      2.96753683	     89.87399142	     -4.78904243	     33.31307185	     30.57581862	     73.49781699	      0.00000000	      0.00000000	     89.92308857	    -14.11717939	     37.66483890	     34.21297862	     85.07020520	      0.00000000	      0.00000000
     12.13000000	     10.05335921	     -6.60999496	     -4.40502779	     -0.27394745	      0.93100274	     -1.03198011	     62.83089855	      2.50932547	     -4.67023814	     31.79721046	      0.55496602	     -2.80651113	      0.00000000	      0.00000000	     23.37241188	     -4.71486600	     -6.89144625	     69.47739850	      1.21260936	     32.64779876	      0.00000000	      0.00000000	    -19.34554666	      3.26743867	      2.94138243	     89.87325145	     -4.80068193	     33.34279026	     30.51706973	     73.57141780	      0.00000000	      0.00000000	     89.92247631	    -14.08871333	     37.71438571	     34.18828667	     85.07002433	      0.00000000	      0.00000000
     12.13500000	     10.07824642	     -6.61163967	     -4.52417217	     -0.27411976	      0.93223446	     -1.03156306	     62.73873024	      2.61534515	     -4.68313511	     31.80002010	      0.55501505	     -2.82705556	      0.00000000	      0.00000000	     23.19503170	     -4.82177608	     -7.04638320	     69.21030613	      1.20794772	     32.38762062	      0.00000000	      0.00000000	    -19.38966423	      3.20610343	      3.05604484	     89.87367301	     -4.79451495	     33.35271392	     30.48488977	     73.65228402	      0.00000000	      0.00000000	     89.92272558	    -14.10934755	     37.75029793	     34.16494987	     85.06620828	      0.00000000	      0.00000000
     12.14000000	     10.03953918	     -6.61806713	     -4.46668011	     -0.27424595	      0.93301835	     -1.03180049	     62.75521475	      2.56591614	     -4.67442107	     31.78354957	      0.55472759	     -2.81579471	      0.00000000	      0.00000000	     23.21784012	     -4.84508317	     -7.07052113	     69.15820053	      1.20703830	     32.37441288	      0.00000000	      0.00000000	    -19.35432819	      3.22991870	      3.01040904	     89.87426481	     -4.81339542	     33.33215090	     30.51294971	     73.66006495	      0.00000000	      0.00000000	     89.92265069	    -14.08600252	     37.73774177	     34.18977746	     85.06312762	      0.00000000	      0.00000000
     12.14500000	      9.99066873	     -6.61878105	     -4.40315616	     -0.27440851	      0.93412276	     -1.03181045	     62.71700653	      2.51291692	     -4.64432785	     31.75282447	      0.55419133	     -2.82492556	      0.00000000	      0.00000000	     23.13082221	     -4.88622876	     -7.13688920	     68.81848202	      1.20110910	     32.15238370	      0.00000000	      0.00000000	    -19.30926478	      3.22140634	      2.95403008	     89.87336595	     -4.86505515	     33.33124213	     30.47046896	     73.71705358	      0.00000000	      0.00000000	     89.92232050	    -14.04849705	     37.77675620	     34.17663384	     85.06311643	      0.00000000	      0.00000000
     12.15000000	     10.17996408	     -6.66895267	     -4.43874611	     -0.27453282	      0.93579456	     -1.03158428	     62.39746602	      2.60624639	     -4.65186713	     31.65619342	      0.55250480	     -2.86905351	      0.00000000	      0.00000000	     22.73907817	     -5.02157486	     -7.29516163	     68.48802751	      1.19534158	     31.83059568	      0.00000000	      0.00000000	    -19.52481477	      3.21747526	      3.03208413	     89.87401996	     -4.83953404	     33.37146012	     30.36452049	     73.86702754	      0.00000000	      0.00000000	     89.92251538	    -14.03199591	     37.86800338	     34.11668777	     85.06638919	      0.00000000	      0.00000000
     12.15500000	     10.13315140	     -6.67106850	     -4.40333938	     -0.27470528	      0.93661760	     -1.03168073	     62.39987426	      2.57222845	     -4.64010583	     31.65427243	      0.55247128	     -2.86000393	      0.00000000	      0.00000000	     22.76697576	     -5.04522385	     -7.30817776	     68.41195455	      1.19401385	     31.80587746	      0.00000000	      0.00000000	    -19.48448374	      3.22358800	      3.00859345	     89.87510302	     -4.87198188	     33.34668840	     30.39196403	     73.87718006	      0.00000000	      0.00000000	     89.92264820	    -14.02751156	     37.85169233	     34.14246248	     85.06252491	      0.00000000	      0.00000000
     12.16000000	      9.91622984	     -6.63349392	     -4.39765618	     -0.27489061	      0.93705163	     -1.03169549	     62.60048378	      2.53546824	     -4.62292070	     31.58129444	      0.55119757	     -2.82082662	      0.00000000	      0.00000000	     22.89321118	     -5.05617307	     -7.38957228	     68.13788759	      1.18923048	     31.67463808	      0.00000000	      0.00000000	    -19.25362759	      3.18985534	      2.97771308	     89.87413839	     -4.92038734	     33.32328870	     30.40240491	     73.92870877	      0.00000000	      0.00000000	     89.92238386	    -14.00410902	     37.86523133	     34.16647316	     85.05850796	      0.00000000	      0.00000000
